<mxfile host="65bd71144e">
    <diagram id="IQMYOcrRhYAGgEb2RZ32" name="Page-1">
        <mxGraphModel dx="772" dy="430" grid="1" gridSize="10" guides="1" tooltips="1" connect="1" arrows="1" fold="1" page="1" pageScale="1" pageWidth="850" pageHeight="1100" math="0" shadow="0">
            <root>
                <mxCell id="0"/>
                <mxCell id="1" parent="0"/>
                <mxCell id="4" style="edgeStyle=none;html=1;fontSize=12;fontFamily=Courier New;fontStyle=1" parent="1" source="2" target="3" edge="1">
                    <mxGeometry relative="1" as="geometry"/>
                </mxCell>
                <mxCell id="2" value="START" style="ellipse;whiteSpace=wrap;html=1;fontSize=12;fontFamily=Courier New;fontStyle=1" parent="1" vertex="1">
                    <mxGeometry x="285" y="45" width="120" height="80" as="geometry"/>
                </mxCell>
                <mxCell id="6" style="edgeStyle=none;html=1;fontSize=12;fontFamily=Courier New;fontStyle=1" parent="1" source="3" target="5" edge="1">
                    <mxGeometry relative="1" as="geometry"/>
                </mxCell>
                <mxCell id="3" value="Load Transactions from CSV File" style="rounded=0;whiteSpace=wrap;html=1;fontSize=12;fontFamily=Courier New;fontStyle=1" parent="1" vertex="1">
                    <mxGeometry x="285" y="175" width="120" height="60" as="geometry"/>
                </mxCell>
                <mxCell id="18" style="edgeStyle=none;html=1;fontSize=12;fontFamily=Courier New;fontStyle=1" parent="1" source="5" target="7" edge="1">
                    <mxGeometry relative="1" as="geometry"/>
                </mxCell>
                <mxCell id="5" value="Display Main Menu" style="rounded=0;whiteSpace=wrap;html=1;fontSize=12;fontFamily=Courier New;fontStyle=1" parent="1" vertex="1">
                    <mxGeometry x="285" y="275" width="120" height="60" as="geometry"/>
                </mxCell>
                <mxCell id="13" style="edgeStyle=none;html=1;entryX=0.5;entryY=0;entryDx=0;entryDy=0;fontSize=12;fontFamily=Courier New;fontStyle=1" parent="1" source="7" target="8" edge="1">
                    <mxGeometry relative="1" as="geometry">
                        <Array as="points">
                            <mxPoint x="90" y="405"/>
                        </Array>
                    </mxGeometry>
                </mxCell>
                <mxCell id="14" style="edgeStyle=none;html=1;entryX=0.5;entryY=0;entryDx=0;entryDy=0;exitX=0;exitY=0.5;exitDx=0;exitDy=0;fontSize=12;fontFamily=Courier New;fontStyle=1" parent="1" source="7" target="9" edge="1">
                    <mxGeometry relative="1" as="geometry">
                        <Array as="points"/>
                    </mxGeometry>
                </mxCell>
                <mxCell id="15" style="edgeStyle=none;html=1;fontSize=12;fontFamily=Courier New;fontStyle=1" parent="1" source="7" target="10" edge="1">
                    <mxGeometry relative="1" as="geometry"/>
                </mxCell>
                <mxCell id="16" style="edgeStyle=none;html=1;entryX=0.5;entryY=0;entryDx=0;entryDy=0;fontSize=12;fontFamily=Courier New;fontStyle=1" parent="1" source="7" target="11" edge="1">
                    <mxGeometry relative="1" as="geometry">
                        <Array as="points">
                            <mxPoint x="470" y="405"/>
                        </Array>
                    </mxGeometry>
                </mxCell>
                <mxCell id="17" style="edgeStyle=none;html=1;entryX=0.5;entryY=0;entryDx=0;entryDy=0;fontSize=12;fontFamily=Courier New;fontStyle=1" parent="1" source="7" target="12" edge="1">
                    <mxGeometry relative="1" as="geometry">
                        <Array as="points">
                            <mxPoint x="600" y="405"/>
                        </Array>
                    </mxGeometry>
                </mxCell>
                <mxCell id="68" style="edgeStyle=none;html=1;fontSize=12;fontFamily=Courier New;fontStyle=1" parent="1" source="7" target="65" edge="1">
                    <mxGeometry relative="1" as="geometry">
                        <Array as="points">
                            <mxPoint x="740" y="405"/>
                        </Array>
                    </mxGeometry>
                </mxCell>
                <mxCell id="7" value="User Chooses Option:" style="rhombus;whiteSpace=wrap;html=1;fontSize=12;fontFamily=Courier New;fontStyle=1" parent="1" vertex="1">
                    <mxGeometry x="220" y="365" width="250" height="80" as="geometry"/>
                </mxCell>
                <mxCell id="20" style="edgeStyle=none;html=1;entryX=0.5;entryY=0;entryDx=0;entryDy=0;fontSize=12;fontFamily=Courier New;fontStyle=1" parent="1" source="8" target="19" edge="1">
                    <mxGeometry relative="1" as="geometry"/>
                </mxCell>
                <mxCell id="8" value="1" style="shape=parallelogram;perimeter=parallelogramPerimeter;whiteSpace=wrap;html=1;fixedSize=1;fontSize=12;fontFamily=Courier New;fontStyle=1" parent="1" vertex="1">
                    <mxGeometry x="30" y="475" width="120" height="60" as="geometry"/>
                </mxCell>
                <mxCell id="22" style="edgeStyle=none;html=1;fontSize=12;fontFamily=Courier New;fontStyle=1" parent="1" source="9" target="21" edge="1">
                    <mxGeometry relative="1" as="geometry"/>
                </mxCell>
                <mxCell id="9" value="2" style="shape=parallelogram;perimeter=parallelogramPerimeter;whiteSpace=wrap;html=1;fixedSize=1;fontSize=12;fontFamily=Courier New;fontStyle=1" parent="1" vertex="1">
                    <mxGeometry x="160" y="475" width="120" height="60" as="geometry"/>
                </mxCell>
                <mxCell id="24" style="edgeStyle=none;html=1;entryX=0.5;entryY=0;entryDx=0;entryDy=0;fontSize=12;fontFamily=Courier New;fontStyle=1" parent="1" source="10" target="23" edge="1">
                    <mxGeometry relative="1" as="geometry"/>
                </mxCell>
                <mxCell id="10" value="3" style="shape=parallelogram;perimeter=parallelogramPerimeter;whiteSpace=wrap;html=1;fixedSize=1;fontSize=12;fontFamily=Courier New;fontStyle=1" parent="1" vertex="1">
                    <mxGeometry x="285" y="475" width="120" height="60" as="geometry"/>
                </mxCell>
                <mxCell id="26" style="edgeStyle=none;html=1;entryX=0.5;entryY=0;entryDx=0;entryDy=0;fontSize=12;fontFamily=Courier New;fontStyle=1" parent="1" source="11" target="25" edge="1">
                    <mxGeometry relative="1" as="geometry"/>
                </mxCell>
                <mxCell id="11" value="4" style="shape=parallelogram;perimeter=parallelogramPerimeter;whiteSpace=wrap;html=1;fixedSize=1;fontSize=12;fontFamily=Courier New;fontStyle=1" parent="1" vertex="1">
                    <mxGeometry x="410" y="475" width="120" height="60" as="geometry"/>
                </mxCell>
                <mxCell id="28" style="edgeStyle=none;html=1;fontSize=12;fontFamily=Courier New;fontStyle=1" parent="1" source="12" target="27" edge="1">
                    <mxGeometry relative="1" as="geometry"/>
                </mxCell>
                <mxCell id="12" value="5" style="shape=parallelogram;perimeter=parallelogramPerimeter;whiteSpace=wrap;html=1;fixedSize=1;fontSize=12;fontFamily=Courier New;fontStyle=1" parent="1" vertex="1">
                    <mxGeometry x="540" y="475" width="120" height="60" as="geometry"/>
                </mxCell>
                <mxCell id="30" style="edgeStyle=none;html=1;fontSize=12;fontFamily=Courier New;fontStyle=1" parent="1" source="19" target="29" edge="1">
                    <mxGeometry relative="1" as="geometry"/>
                </mxCell>
                <mxCell id="19" value="Add Transaction" style="rounded=0;whiteSpace=wrap;html=1;fontSize=12;fontFamily=Courier New;fontStyle=1" parent="1" vertex="1">
                    <mxGeometry x="30" y="585" width="120" height="60" as="geometry"/>
                </mxCell>
                <mxCell id="35" style="edgeStyle=none;html=1;fontSize=12;fontFamily=Courier New;fontStyle=1" parent="1" source="21" target="34" edge="1">
                    <mxGeometry relative="1" as="geometry"/>
                </mxCell>
                <mxCell id="21" value="View Summary" style="rounded=0;whiteSpace=wrap;html=1;fontSize=12;fontFamily=Courier New;fontStyle=1" parent="1" vertex="1">
                    <mxGeometry x="160" y="585" width="120" height="60" as="geometry"/>
                </mxCell>
                <mxCell id="36" style="edgeStyle=none;html=1;fontSize=12;fontFamily=Courier New;fontStyle=1" parent="1" source="23" target="31" edge="1">
                    <mxGeometry relative="1" as="geometry"/>
                </mxCell>
                <mxCell id="23" value="View Monthly Summary" style="rounded=0;whiteSpace=wrap;html=1;fontSize=12;fontFamily=Courier New;fontStyle=1" parent="1" vertex="1">
                    <mxGeometry x="285" y="585" width="120" height="60" as="geometry"/>
                </mxCell>
                <mxCell id="37" style="edgeStyle=none;html=1;fontSize=12;fontFamily=Courier New;fontStyle=1" parent="1" source="25" target="32" edge="1">
                    <mxGeometry relative="1" as="geometry"/>
                </mxCell>
                <mxCell id="25" value="Filter by Category" style="rounded=0;whiteSpace=wrap;html=1;fontSize=12;fontFamily=Courier New;fontStyle=1" parent="1" vertex="1">
                    <mxGeometry x="410" y="585" width="120" height="60" as="geometry"/>
                </mxCell>
                <mxCell id="38" style="edgeStyle=none;html=1;entryX=0.5;entryY=0;entryDx=0;entryDy=0;fontSize=12;fontFamily=Courier New;fontStyle=1" parent="1" source="27" target="33" edge="1">
                    <mxGeometry relative="1" as="geometry"/>
                </mxCell>
                <mxCell id="27" value="Save and Exit" style="rounded=0;whiteSpace=wrap;html=1;fontSize=12;fontFamily=Courier New;fontStyle=1" parent="1" vertex="1">
                    <mxGeometry x="540" y="585" width="120" height="60" as="geometry"/>
                </mxCell>
                <mxCell id="42" style="edgeStyle=none;html=1;fontSize=12;fontFamily=Courier New;fontStyle=1" parent="1" source="29" target="41" edge="1">
                    <mxGeometry relative="1" as="geometry"/>
                </mxCell>
                <mxCell id="29" value="Prompt User for Transaction Details" style="rounded=0;whiteSpace=wrap;html=1;fontSize=12;fontFamily=Courier New;fontStyle=1" parent="1" vertex="1">
                    <mxGeometry x="30" y="685" width="120" height="60" as="geometry"/>
                </mxCell>
                <mxCell id="49" style="edgeStyle=none;html=1;fontSize=12;fontFamily=Courier New;fontStyle=1" parent="1" source="31" target="47" edge="1">
                    <mxGeometry relative="1" as="geometry"/>
                </mxCell>
                <mxCell id="31" value="&amp;nbsp;Prompt User for Month and Year" style="rounded=0;whiteSpace=wrap;html=1;fontSize=12;fontFamily=Courier New;fontStyle=1" parent="1" vertex="1">
                    <mxGeometry x="285" y="685" width="120" height="60" as="geometry"/>
                </mxCell>
                <mxCell id="50" style="edgeStyle=none;html=1;fontSize=12;fontFamily=Courier New;fontStyle=1" parent="1" source="32" target="46" edge="1">
                    <mxGeometry relative="1" as="geometry"/>
                </mxCell>
                <mxCell id="32" value="Prompt User for Category" style="rounded=0;whiteSpace=wrap;html=1;fontSize=12;fontFamily=Courier New;fontStyle=1" parent="1" vertex="1">
                    <mxGeometry x="410" y="685" width="120" height="60" as="geometry"/>
                </mxCell>
                <mxCell id="40" style="edgeStyle=none;html=1;fontSize=12;fontFamily=Courier New;fontStyle=1" parent="1" source="33" target="39" edge="1">
                    <mxGeometry relative="1" as="geometry"/>
                </mxCell>
                <mxCell id="33" value="Save Transactions to CSV File" style="rounded=0;whiteSpace=wrap;html=1;fontSize=12;fontFamily=Courier New;fontStyle=1" parent="1" vertex="1">
                    <mxGeometry x="540" y="685" width="120" height="60" as="geometry"/>
                </mxCell>
                <mxCell id="51" style="edgeStyle=none;html=1;fontSize=12;fontFamily=Courier New;fontStyle=1" parent="1" source="34" target="48" edge="1">
                    <mxGeometry relative="1" as="geometry"/>
                </mxCell>
                <mxCell id="34" value="&amp;nbsp;Calculate Total Income, Outcome, and Balance" style="rounded=0;whiteSpace=wrap;html=1;fontSize=12;fontFamily=Courier New;fontStyle=1" parent="1" vertex="1">
                    <mxGeometry x="160" y="685" width="120" height="60" as="geometry"/>
                </mxCell>
                <mxCell id="39" value="END" style="ellipse;whiteSpace=wrap;html=1;fontSize=12;fontFamily=Courier New;fontStyle=1" parent="1" vertex="1">
                    <mxGeometry x="540" y="775" width="120" height="80" as="geometry"/>
                </mxCell>
                <mxCell id="45" style="edgeStyle=none;html=1;fontSize=12;fontFamily=Courier New;fontStyle=1" parent="1" source="41" target="43" edge="1">
                    <mxGeometry relative="1" as="geometry"/>
                </mxCell>
                <mxCell id="41" value="&amp;nbsp;Validate Transaction Type, Amount, and Date" style="rounded=0;whiteSpace=wrap;html=1;fontSize=12;fontFamily=Courier New;fontStyle=1" parent="1" vertex="1">
                    <mxGeometry x="30" y="785" width="120" height="60" as="geometry"/>
                </mxCell>
                <mxCell id="58" style="edgeStyle=none;html=1;fontSize=12;fontFamily=Courier New;fontStyle=1" parent="1" source="43" target="7" edge="1">
                    <mxGeometry relative="1" as="geometry">
                        <Array as="points">
                            <mxPoint x="90" y="995"/>
                            <mxPoint x="10" y="995"/>
                            <mxPoint x="10" y="405"/>
                        </Array>
                    </mxGeometry>
                </mxCell>
                <mxCell id="43" value="&amp;nbsp;Add Transaction to List" style="rounded=0;whiteSpace=wrap;html=1;fontSize=12;fontFamily=Courier New;fontStyle=1" parent="1" vertex="1">
                    <mxGeometry x="30" y="875" width="120" height="60" as="geometry"/>
                </mxCell>
                <mxCell id="57" style="edgeStyle=none;html=1;fontSize=12;fontFamily=Courier New;fontStyle=1" parent="1" source="46" target="54" edge="1">
                    <mxGeometry relative="1" as="geometry"/>
                </mxCell>
                <mxCell id="46" value="Filter Transactions by Category" style="rounded=0;whiteSpace=wrap;html=1;fontSize=12;fontFamily=Courier New;fontStyle=1" parent="1" vertex="1">
                    <mxGeometry x="410" y="785" width="120" height="60" as="geometry"/>
                </mxCell>
                <mxCell id="56" style="edgeStyle=none;html=1;fontSize=12;fontFamily=Courier New;fontStyle=1" parent="1" source="47" target="53" edge="1">
                    <mxGeometry relative="1" as="geometry"/>
                </mxCell>
                <mxCell id="47" value="&amp;nbsp;Filter Transactions by Month and Year" style="rounded=0;whiteSpace=wrap;html=1;fontSize=12;fontFamily=Courier New;fontStyle=1" parent="1" vertex="1">
                    <mxGeometry x="285" y="785" width="120" height="60" as="geometry"/>
                </mxCell>
                <mxCell id="55" style="edgeStyle=none;html=1;fontSize=12;fontFamily=Courier New;fontStyle=1" parent="1" source="48" target="7" edge="1">
                    <mxGeometry relative="1" as="geometry">
                        <mxPoint x="220" y="905" as="targetPoint"/>
                        <Array as="points">
                            <mxPoint x="220" y="995"/>
                            <mxPoint x="10" y="995"/>
                            <mxPoint x="10" y="405"/>
                        </Array>
                    </mxGeometry>
                </mxCell>
                <mxCell id="48" value="Display Summary" style="rounded=0;whiteSpace=wrap;html=1;fontSize=12;fontFamily=Courier New;fontStyle=1" parent="1" vertex="1">
                    <mxGeometry x="160" y="785" width="120" height="60" as="geometry"/>
                </mxCell>
                <mxCell id="60" style="edgeStyle=none;html=1;exitX=0.5;exitY=1;exitDx=0;exitDy=0;fontSize=12;fontFamily=Courier New;fontStyle=1" parent="1" source="53" target="59" edge="1">
                    <mxGeometry relative="1" as="geometry"/>
                </mxCell>
                <mxCell id="53" value="Calculate Monthly Income and Outcome" style="rounded=0;whiteSpace=wrap;html=1;fontSize=12;fontFamily=Courier New;fontStyle=1" parent="1" vertex="1">
                    <mxGeometry x="285" y="875" width="120" height="60" as="geometry"/>
                </mxCell>
                <mxCell id="63" style="edgeStyle=none;html=1;fontSize=12;fontFamily=Courier New;fontStyle=1" parent="1" source="54" target="62" edge="1">
                    <mxGeometry relative="1" as="geometry"/>
                </mxCell>
                <mxCell id="54" value="Calculate Income and Outcome for Category" style="rounded=0;whiteSpace=wrap;html=1;fontSize=12;fontFamily=Courier New;fontStyle=1" parent="1" vertex="1">
                    <mxGeometry x="410" y="875" width="120" height="60" as="geometry"/>
                </mxCell>
                <mxCell id="61" style="edgeStyle=none;html=1;fontSize=12;fontFamily=Courier New;fontStyle=1" parent="1" source="59" target="7" edge="1">
                    <mxGeometry relative="1" as="geometry">
                        <Array as="points">
                            <mxPoint x="10" y="995"/>
                            <mxPoint x="10" y="405"/>
                        </Array>
                    </mxGeometry>
                </mxCell>
                <mxCell id="59" value="Display Monthly Summary" style="rounded=0;whiteSpace=wrap;html=1;fontSize=12;fontFamily=Courier New;fontStyle=1" parent="1" vertex="1">
                    <mxGeometry x="285" y="965" width="120" height="60" as="geometry"/>
                </mxCell>
                <mxCell id="64" style="edgeStyle=none;html=1;fontSize=12;fontFamily=Courier New;fontStyle=1" parent="1" source="62" target="7" edge="1">
                    <mxGeometry relative="1" as="geometry">
                        <Array as="points">
                            <mxPoint x="470" y="1055"/>
                            <mxPoint x="10" y="1055"/>
                            <mxPoint x="10" y="745"/>
                            <mxPoint x="10" y="405"/>
                        </Array>
                    </mxGeometry>
                </mxCell>
                <mxCell id="62" value="Display Category Summary" style="rounded=0;whiteSpace=wrap;html=1;fontSize=12;fontFamily=Courier New;fontStyle=1" parent="1" vertex="1">
                    <mxGeometry x="410" y="965" width="120" height="60" as="geometry"/>
                </mxCell>
                <mxCell id="67" style="edgeStyle=none;html=1;fontSize=12;fontFamily=Courier New;fontStyle=1" parent="1" source="65" target="66" edge="1">
                    <mxGeometry relative="1" as="geometry"/>
                </mxCell>
                <mxCell id="65" value="Invalid Choice" style="shape=parallelogram;perimeter=parallelogramPerimeter;whiteSpace=wrap;html=1;fixedSize=1;fontSize=12;fontFamily=Courier New;fontStyle=1" parent="1" vertex="1">
                    <mxGeometry x="670" y="475" width="140" height="60" as="geometry"/>
                </mxCell>
                <mxCell id="69" style="edgeStyle=none;html=1;fontSize=12;fontFamily=Courier New;fontStyle=1" parent="1" source="66" target="7" edge="1">
                    <mxGeometry relative="1" as="geometry">
                        <Array as="points">
                            <mxPoint x="820" y="615"/>
                            <mxPoint x="820" y="405"/>
                        </Array>
                    </mxGeometry>
                </mxCell>
                <mxCell id="66" value="Display Error Message" style="rounded=0;whiteSpace=wrap;html=1;fontSize=12;fontFamily=Courier New;fontStyle=1" parent="1" vertex="1">
                    <mxGeometry x="680" y="585" width="120" height="60" as="geometry"/>
                </mxCell>
                <mxCell id="70" value="&lt;font style=&quot;font-size: 16px;&quot;&gt;&lt;u style=&quot;&quot;&gt;Finance app flowchart:&lt;/u&gt;&lt;/font&gt;" style="text;html=1;align=center;verticalAlign=middle;resizable=0;points=[];autosize=1;strokeColor=none;fillColor=none;fontSize=12;fontFamily=Courier New;fontStyle=1" parent="1" vertex="1">
                    <mxGeometry x="25" y="25" width="230" height="30" as="geometry"/>
                </mxCell>
                <mxCell id="71" value="&lt;font&gt;&lt;span&gt;Adi Strasser - 211862511&lt;/span&gt;&lt;/font&gt;" style="text;html=1;align=center;verticalAlign=middle;resizable=0;points=[];autosize=1;strokeColor=none;fillColor=none;fontSize=14;fontFamily=Courier New;fontStyle=1" parent="1" vertex="1">
                    <mxGeometry x="590" y="25" width="230" height="30" as="geometry"/>
                </mxCell>
                <mxCell id="72" value="&lt;font&gt;&lt;span&gt;&lt;span&gt;Adam Adlin - 318578176&lt;/span&gt;&lt;/span&gt;&lt;/font&gt;" style="text;html=1;align=center;verticalAlign=middle;resizable=0;points=[];autosize=1;strokeColor=none;fillColor=none;fontSize=14;fontFamily=Courier New;fontStyle=1" parent="1" vertex="1">
                    <mxGeometry x="590" y="55" width="210" height="30" as="geometry"/>
                </mxCell>
            </root>
        </mxGraphModel>
    </diagram>
</mxfile>